#!OML:ASF E:\Mandelcareful walks\Project 1\Capture day 1\Session 1\Subject1.ASF
:FULLY-SPECIFIED
:DEGREES
496
root 38.853 15.5178 -3.49212 -169.86 28.9531 179.353
lowerback 43.8741 1.7311 -5.35255
upperback 8.55717 2.10386 -4.03402
thorax -10.8818 2.24578 -2.78542
lowerneck -29.9365 4.40322 -0.941865
upperneck 14.8988 8.19329 -7.34275
head 9.8797 2.87522 -1.09141
rclavicle 3.18055e-015 1.11319e-014
rhumerus -0.410019 18.4325 -76.3901
rradius 65.7728
rwrist -13.4762
rhand -13.0572 -27.1916
rfingers 7.12502
rthumb 13.038 -56.7641
lclavicle 3.18055e-015 1.11319e-014
lhumerus 0.811327 -26.4047 62.1176
lradius 60.9541
lwrist 30.9243
lhand -26.8306 -17.4831
lfingers 7.12502
lthumb -0.256519 12.4965
rfemur -25.9726 -21.0529 6.20675
rtibia 57.4834
rfoot -21.1429 -5.46317
rtoes -10.6707
lfemur -48.5263 1.50257 -22.0222
ltibia 48.8836
lfoot -9.0208 5.77797
ltoes 14.3376
497
root 38.9513 15.5332 -3.46526 -169.507 28.7124 179.409
lowerback 43.6441 1.58877 -5.20338
upperback 8.56898 2.00244 -3.89291
thorax -10.8097 2.18373 -2.6506
lowerneck -30.1476 4.37743 -1.24243
upperneck 14.9667 8.27359 -7.23521
head 9.92363 2.90066 -0.989809
rclavicle 1.39149e-014 -4.45278e-014
rhumerus -0.657558 18.0634 -76.0742
rradius 65.8225
rwrist -12.9542
rhand -12.0015 -26.6883
rfingers 7.12502
rthumb 14.0555 -56.193
lclavicle 1.39149e-014 -4.45278e-014
lhumerus 1.75079 -25.7974 61.6478
lradius 61.3427
lwrist 31.0597
lhand -27.0648 -17.7711
lfingers 7.12502
lthumb -0.482678 12.2081
rfemur -26.6106 -19.3635 5.85925
rtibia 55.4593
rfoot -21.5101 -4.7909
rtoes -13.7304
lfemur -48.6823 1.59364 -21.6377
ltibia 48.6239
lfoot -8.75347 5.56438
ltoes 12.8728
498
root 39.0522 15.5419 -3.42912 -169.223 28.5015 179.244
lowerback 43.3059 1.5213 -5.34228
upperback 8.57579 1.86804 -3.76262
thorax -10.7069 2.11032 -2.3622
lowerneck -30.509 4.38128 -1.61679
upperneck 15.1912 8.41474 -7.01296
head 10.0402 2.95082 -0.823163
rclavicle 1.98785e-015 -3.06128e-014
rhumerus -0.870947 18.0844 -75.8093
rradius 65.9144
rwrist -13.0517
rhand -11.7913 -26.7826
rfingers 7.12502
rthumb 14.2581 -56.2731
lclavicle 1.98785e-015 -3.06128e-014
lhumerus 2.4411 -25.1753 61.4465
lradius 61.5864
lwrist 31.1784
lhand -27.5031 -18.3178
lfingers 7.12502
lthumb -0.906035 11.6601
rfemur -27.6153 -17.8855 5.41017
rtibia 53.7574
rfoot -21.2461 -2.84997
rtoes -16.4505
lfemur -48.9823 1.72387 -21.5202
ltibia 48.4734
lfoot -8.48126 5.49235
ltoes 10.9052
499
root 39.1519 15.542 -3.3841 -168.922 28.3 179.019
lowerback 42.8656 1.43007 -5.54249
upperback 8.56127 1.66818 -3.66981
thorax -10.595 2.00443 -2.0518
lowerneck -29.6811 4.76139 -0.603728
upperneck 14.3146 8.73413 -8.30474
head 9.72342 3.07282 -1.39246
rclavicle -3.33958e-014 -1.74931e-014
rhumerus -1.11641 18.4842 -75.6406
rradius 66.0526
rwrist -13.5787
rhand -12.2759 -27.1726
rfingers 7.12502
rthumb 13.7911 -56.6954
lclavicle -3.33958e-014 -1.74931e-014
lhumerus 2.66264 -24.4885 61.1628
lradius 62.1269
lwrist 31.6633
lhand -27.9961 -18.6214
lfingers 7.12502
lthumb -1.38213 11.3539
rfemur -29.0031 -16.4856 5.0843
rtibia 52.3623
rfoot -20.804 -0.444395
rtoes -19.3853
lfemur -49.3909 1.78059 -21.4265
ltibia 48.3363
lfoot -8.22913 5.55268
ltoes 10.0948
500
root 39.2544 15.5397 -3.33367 -168.73 28.1004 178.764
lowerback 42.5153 1.32974 -5.72245
upperback 8.54551 1.46584 -3.61666
thorax -10.5071 1.90193 -1.79912
lowerneck -30.0174 4.86836 -0.970624
upperneck 14.5978 8.99007 -8.00706
head 9.85559 3.17988 -1.18204
rclavicle -3.06128e-014 1.59028e-014
rhumerus -1.37212 18.9021 -75.4901
rradius 66.1138
rwrist -13.8215
rhand -12.9305 -27.3616
rfingers 7.12502
rthumb 13.1602 -56.9263
lclavicle -3.06128e-014 1.59028e-014
lhumerus 2.73703 -23.7411 60.8681
lradius 62.7164
lwrist 32.2093
lhand -28.2449 -19.0793
lfingers 7.12502
lthumb -1.62239 10.8943
rfemur -30.234 -15.2822 4.75772
rtibia 51.3175
rfoot -20.6526 2.53087
rtoes -21.6772
lfemur -49.6145 1.80087 -21.2709
ltibia 48.111
lfoot -8.02946 5.56144
ltoes 10.1683
501
root 39.36 15.5526 -3.2782 -168.91 27.874 178.273
lowerback 42.4582 1.23926 -5.96178
upperback 8.56291 1.26183 -3.6779
thorax -10.4626 1.81999 -1.65215
lowerneck -30.111 4.92122 -1.12336
upperneck 14.5952 9.08807 -7.85428
head 9.85664 3.23166 -1.08676
rclavicle 1.47101e-014 -1.59028e-015
rhumerus -1.65053 19.2069 -75.4175
rradius 66.1523
rwrist -14.0912
rhand -13.7417 -27.56
rfingers 7.12502
rthumb 12.3781 -57.1735
lclavicle 1.47101e-014 -1.59028e-015
lhumerus 2.8464 -23.1821 60.5877
lradius 63.089
lwrist 32.7776
lhand -28.5931 -19.958
lfingers 7.12502
lthumb -1.95869 10.0128
rfemur -30.9528 -13.7345 4.14733
rtibia 50.6574
rfoot -20.8205 4.79955
rtoes -22.2976
lfemur -49.4155 1.6112 -21.214
ltibia 47.7384
lfoot -7.81264 5.62611
ltoes 9.25443
